<svg width="48" height="48" viewBox="0 0 48 48" fill="none" xmlns="http://www.w3.org/2000/svg">
  <!-- On-chain data logo: Indigo blockchain/cube concept -->
  <defs>
    <linearGradient id="chainGrad" x1="0%" y1="0%" x2="100%" y2="100%">
      <stop offset="0%" style="stop-color:#818CF8;stop-opacity:1" />
      <stop offset="100%" style="stop-color:#6366F1;stop-opacity:1" />
    </linearGradient>
  </defs>

  <!-- Background -->
  <rect width="48" height="48" rx="10" fill="url(#chainGrad)"/>

  <!-- 3D cube/blockchain concept -->
  <g transform="translate(24, 20)">
    <!-- Top face -->
    <path d="M 0 -8 L 10 -3 L 10 4 L 0 9 L -10 4 L -10 -3 Z" fill="white" opacity="0.95"/>

    <!-- Left face -->
    <path d="M -10 4 L -10 -3 L 0 -8 L 0 9 Z" fill="white" opacity="0.7"/>

    <!-- Right face -->
    <path d="M 10 4 L 10 -3 L 0 -8 L 0 9 Z" fill="white" opacity="0.85"/>
  </g>

  <!-- Second cube (creating chain effect) -->
  <g transform="translate(24, 32)">
    <!-- Top face -->
    <path d="M 0 -4 L 8 -1 L 8 4 L 0 7 L -8 4 L -8 -1 Z" fill="white" opacity="0.8"/>

    <!-- Left face -->
    <path d="M -8 4 L -8 -1 L 0 -4 L 0 7 Z" fill="white" opacity="0.55"/>

    <!-- Right face -->
    <path d="M 8 4 L 8 -1 L 0 -4 L 0 7 Z" fill="white" opacity="0.7"/>
  </g>

  <!-- Connection lines -->
  <line x1="24" y1="17" x2="24" y2="20" stroke="white" stroke-width="1.5" opacity="0.8"/>
  <line x1="24" y1="29" x2="24" y2="28" stroke="white" stroke-width="1.5" opacity="0.8"/>
</svg>
