<svg width="48" height="48" viewBox="0 0 48 48" fill="none" xmlns="http://www.w3.org/2000/svg">
  <!-- On-chain data visualization theme -->
  <defs>
    <linearGradient id="chainGrad" x1="0%" y1="0%" x2="100%" y2="100%">
      <stop offset="0%" style="stop-color:#3B82F6;stop-opacity:1" />
      <stop offset="100%" style="stop-color:#2563EB;stop-opacity:1" />
    </linearGradient>
  </defs>

  <!-- Background -->
  <rect width="48" height="48" rx="10" fill="url(#chainGrad)"/>

  <!-- Blockchain blocks connected by links -->
  <g transform="translate(12, 12)">
    <!-- Block 1 -->
    <rect x="0" y="0" width="6" height="6" rx="1" fill="white"/>

    <!-- Link 1 -->
    <line x1="6" y1="3" x2="9" y2="3" stroke="white" stroke-width="1.5"/>

    <!-- Block 2 -->
    <rect x="9" y="0" width="6" height="6" rx="1" fill="white"/>

    <!-- Link 2 -->
    <line x1="15" y1="3" x2="18" y2="3" stroke="white" stroke-width="1.5"/>

    <!-- Block 3 -->
    <rect x="18" y="0" width="6" height="6" rx="1" fill="white"/>

    <!-- Second row -->
    <!-- Block 4 -->
    <rect x="0" y="9" width="6" height="6" rx="1" fill="white" opacity="0.8"/>

    <!-- Link 3 -->
    <line x1="6" y1="12" x2="9" y2="12" stroke="white" stroke-width="1.5" opacity="0.8"/>

    <!-- Block 5 -->
    <rect x="9" y="9" width="6" height="6" rx="1" fill="white" opacity="0.8"/>

    <!-- Link 4 -->
    <line x1="15" y1="12" x2="18" y2="12" stroke="white" stroke-width="1.5" opacity="0.8"/>

    <!-- Block 6 -->
    <rect x="18" y="9" width="6" height="6" rx="1" fill="white" opacity="0.8"/>

    <!-- Vertical connections -->
    <line x1="3" y1="6" x2="3" y2="9" stroke="white" stroke-width="1.5" opacity="0.6"/>
    <line x1="12" y1="6" x2="12" y2="9" stroke="white" stroke-width="1.5" opacity="0.6"/>
    <line x1="21" y1="6" x2="21" y2="9" stroke="white" stroke-width="1.5" opacity="0.6"/>
  </g>
</svg>
