<svg width="48" height="48" viewBox="0 0 48 48" fill="none" xmlns="http://www.w3.org/2000/svg">
  <!-- Social sentiment analysis theme -->
  <defs>
    <linearGradient id="sentimentGrad" x1="0%" y1="0%" x2="100%" y2="100%">
      <stop offset="0%" style="stop-color:#EC4899;stop-opacity:1" />
      <stop offset="100%" style="stop-color:#DB2777;stop-opacity:1" />
    </linearGradient>
  </defs>

  <!-- Background -->
  <rect width="48" height="48" rx="10" fill="url(#sentimentGrad)"/>

  <!-- Sentiment meter / chart visualization -->
  <g transform="translate(12, 16)">
    <!-- Speech bubble outline -->
    <path d="M 2 0 L 22 0 C 23 0 24 1 24 2 L 24 12 C 24 13 23 14 22 14 L 14 14 L 12 18 L 10 14 L 2 14 C 1 14 0 13 0 12 L 0 2 C 0 1 1 0 2 0 Z" fill="white"/>

    <!-- Sentiment trend line (positive) -->
    <path d="M 4 10 L 8 7 L 12 8 L 16 5 L 20 6" stroke="#EC4899" stroke-width="2" fill="none" stroke-linecap="round" stroke-linejoin="round"/>

    <!-- Data points -->
    <circle cx="4" cy="10" r="1.5" fill="#EC4899"/>
    <circle cx="8" cy="7" r="1.5" fill="#EC4899"/>
    <circle cx="12" cy="8" r="1.5" fill="#EC4899"/>
    <circle cx="16" cy="5" r="1.5" fill="#EC4899"/>
    <circle cx="20" cy="6" r="1.5" fill="#EC4899"/>
  </g>
</svg>
